<svg xmlns="http://www.w3.org/2000/svg" viewBox="50 236 290 292" width="292" height="292">
  <path fill="#0D1B2A" d="M80.5447 246.47L190.148 246.379C208.334 246.392 226.521 246.176 244.691 246.803C259.445 247.313 266.52 258.086 275.966 267.901L303.521 296.456C334.577 328.668 332.585 318.187 332.559 363.755L332.49 422.634L332.595 473.873C332.653 493.839 336.954 519.48 310.57 523.06L153.103 523.135L104.931 523.197C92.8899 523.222 74.5688 525.481 65.1829 517.65C59.6574 513.04 57.3756 506.077 57.1903 499.071C56.8171 484.966 56.9764 470.808 56.9773 456.702L56.9933 373.133L56.969 304.539C56.9626 294.374 57.0915 284.049 57.0283 273.906C56.9297 258.102 63.792 247.528 80.5447 246.47Z"/>
  <path fill="white" d="M95.8555 284.262L230.966 284.282C230.93 299.497 230.595 315.028 231.126 330.216C231.727 347.388 245.091 352.036 260.127 351.668C271.222 351.396 283.25 351.7 294.553 351.822C294.604 395.484 295.192 440.515 294.492 484.097L95.761 484.003L95.8555 284.262Z"/>
  <path fill="#0943F6" d="M192.491 331.905C193.679 331.868 195.006 331.8 196.17 332.068C198.664 332.64 240.208 376.381 244.442 382.27C244.736 384.803 244.925 388.475 242.991 390.036C234.906 396.566 203.5 432.786 197.111 435.256C196.835 435.233 196.56 435.209 196.284 435.185L195.848 435.125C194.236 434.912 192.997 434.521 191.681 433.558C183.727 427.741 176.783 419.08 169.885 412.042C162.836 404.85 155.027 397.86 148.613 390.136C146.757 387.901 144.028 384.292 144.392 381.207C144.939 376.568 186.421 336.845 192.491 331.905Z"/>
  <path fill="#22C55E" d="M136.309 425.766C146.395 423.928 156.051 430.651 157.83 440.751C159.608 450.85 152.831 460.469 142.724 462.189C132.699 463.896 123.179 457.184 121.414 447.167C119.65 437.151 126.305 427.589 136.309 425.766Z"/>
  <path fill="#EF4444" d="M249.512 426.01C259.534 425.664 267.957 433.475 268.367 443.497C268.777 453.519 261.021 461.993 251.004 462.467C240.897 462.945 232.332 455.102 231.918 444.989C231.504 434.877 239.4 426.36 249.512 426.01Z"/>
  <path fill="white" d="M267.582 308.369C269.589 310.292 271.518 312.142 272.728 314.637C266.846 314.231 266.912 314.941 267.582 308.369Z"/>
</svg>
