<?xml version="1.0" encoding="utf-8" ?><svg xmlns="http://www.w3.org/2000/svg" xmlns:xlink="http://www.w3.org/1999/xlink" width="1344" height="768" viewBox="0 0 1344 768"><path fill="white" d="M0 0L1344 0L1344 768L0 768L0 0Z"/><path fill="#0D1B2A" d="M80.5447 246.47L190.148 246.379C208.334 246.392 226.521 246.176 244.691 246.803C259.445 247.313 266.52 258.086 275.966 267.901L303.521 296.456C334.577 328.668 332.585 318.187 332.559 363.755L332.49 422.634L332.595 473.873C332.653 493.839 336.954 519.48 310.57 523.06L153.103 523.135L104.931 523.197C92.8899 523.222 74.5688 525.481 65.1829 517.65C59.6574 513.04 57.3756 506.077 57.1903 499.071C56.8171 484.966 56.9764 470.808 56.9773 456.702L56.9933 373.133L56.969 304.539C56.9626 294.374 57.0915 284.049 57.0283 273.906C56.9297 258.102 63.792 247.528 80.5447 246.47Z"/><path fill="white" d="M95.8555 284.262L230.966 284.282C230.93 299.497 230.595 315.028 231.126 330.216C231.727 347.388 245.091 352.036 260.127 351.668C271.222 351.396 283.25 351.7 294.553 351.822C294.604 395.484 295.192 440.515 294.492 484.097L95.761 484.003L95.8555 284.262Z"/><path fill="#0943F6" d="M192.491 331.905C193.679 331.868 195.006 331.8 196.17 332.068C198.664 332.64 240.208 376.381 244.442 382.27C244.736 384.803 244.925 388.475 242.991 390.036C234.906 396.566 203.5 432.786 197.111 435.256C196.835 435.233 196.56 435.209 196.284 435.185L195.848 435.125C194.236 434.912 192.997 434.521 191.681 433.558C183.727 427.741 176.783 419.08 169.885 412.042C162.836 404.85 155.027 397.86 148.613 390.136C146.757 387.901 144.028 384.292 144.392 381.207C144.939 376.568 186.421 336.845 192.491 331.905Z"/><path fill="#22C55E" d="M136.309 425.766C146.395 423.928 156.051 430.651 157.83 440.751C159.608 450.85 152.831 460.469 142.724 462.189C132.699 463.896 123.179 457.184 121.414 447.167C119.65 437.151 126.305 427.589 136.309 425.766Z"/><path fill="#EF4444" d="M249.512 426.01C259.534 425.664 267.957 433.475 268.367 443.497C268.777 453.519 261.021 461.993 251.004 462.467C240.897 462.945 232.332 455.102 231.918 444.989C231.504 434.877 239.4 426.36 249.512 426.01Z"/><path fill="white" d="M267.582 308.369C269.589 310.292 271.518 312.142 272.728 314.637C266.846 314.231 266.912 314.941 267.582 308.369Z"/><path fill="#0D1B2A" d="M768.873 269.239C796.39 267.227 794.868 290.6 794.822 309.904L794.745 345.178L794.883 394.221C794.94 424.837 795.657 449.286 774.931 474.685C760.99 491.503 740.929 502.08 719.179 504.08C695.041 506.512 675.049 498.534 656.658 483.488C654.051 481.295 651.738 478.736 649.561 476.1C606.465 423.917 637.94 332.145 712.095 338.444C728.996 339.88 740.647 346.163 751.637 359.265L751.388 313.751C751.291 294.805 746.917 276.206 768.873 269.239Z"/><path fill="white" d="M702.949 378.881C710.309 378.154 720.734 378.054 727.479 380.773C763.722 395.385 758.791 449.643 722.454 461.19C664 470.556 657.828 388.471 702.949 378.881Z"/><path fill="#0D1B2A" d="M411.88 269.21C412.584 269.166 413.289 269.133 413.994 269.111C440.8 268.305 437.763 294.235 437.754 312.299L437.803 358.487C438.24 357.954 438.682 357.425 439.129 356.9C449.478 344.768 462.332 338.561 478.207 337.343C497.345 335.96 516.235 342.326 530.636 355.009C547.199 369.369 557.455 389.666 559.192 411.521C561.027 437.544 553.807 458.646 536.913 478.176C492.495 523.353 420.398 506.838 399.586 447.391C396.931 439.872 395.273 432.037 394.657 424.087C394.005 415.686 394.29 405.546 394.313 396.944L394.446 352.509L394.351 312.262C394.261 293.382 390.152 276.36 411.88 269.21Z"/><path fill="white" d="M470.252 377.642C479.802 377.076 488.36 377.546 496.777 382.809C517.023 395.469 521.256 425.439 508.72 444.892C502.44 454.637 493.557 459.69 482.491 462.06C427.745 467.104 420.554 384.574 470.252 377.642Z"/><path fill="#0D1B2A" d="M1053.8 338.329C1072.42 338.555 1089.47 343.118 1104.12 354.965C1120.98 368.595 1130.93 387.912 1132.97 409.426C1133.38 413.782 1134.78 430.149 1131.78 433.488C1131.58 433.708 1130.06 434.851 1129.86 434.865C1120.51 435.535 1107.48 435.176 1098.29 435.168L1021.92 435.262C1030.46 461.785 1052.82 472.681 1078.44 457.966C1082.53 455.615 1088.15 447.656 1093 446.788C1100.96 445.362 1117.47 451.834 1123.87 455.778C1130.3 462.345 1122.13 471.995 1117.48 477.408C1103.69 493.225 1084.18 502.909 1063.25 504.329C1042.56 505.808 1020 497.48 1004.5 483.845C956.932 441.989 971.434 357.862 1034.62 340.864C1041.15 339.107 1047.09 338.742 1053.8 338.329Z"/><path fill="white" d="M1052.7 378.318C1072.45 377.554 1082.07 385.726 1090.04 402.881C1080.29 403.097 1069.96 402.942 1060.17 402.959L1022.05 403.095C1028.04 387.545 1036.42 380.78 1052.7 378.318Z"/><path fill="#0D1B2A" d="M880.735 338.316C899.872 336.735 920.225 343.261 935.01 355.464C952.606 369.986 962.157 390.579 964.194 413.097C964.634 416.084 966.024 432.128 962.285 433.605C955.307 436.362 930.483 435.212 923.156 435.213L853.045 435.203C858.845 462.191 887.993 473.168 910.163 456.928C913.83 454.148 919.115 448.298 923.276 446.624C930.222 443.831 943.668 450.873 950.318 453.648C959.485 460.091 957.959 464.796 951.764 473.111C938.902 490.372 920.126 501.292 898.699 503.779C876.944 506.256 855.091 500.047 837.886 486.501C782.747 442.357 804.01 346.135 880.735 338.316Z"/><path fill="white" d="M880.1 378.919C900.475 376.966 912.444 385.119 921.002 403.111L894.883 402.99L852.557 403.119C858.698 389.174 864.91 382.164 880.1 378.919Z"/><path fill="#0D1B2A" d="M1151.77 339.483C1165.62 338.574 1180.99 339.719 1195.05 339.334C1212.56 339.336 1230.08 339.252 1247.59 339.285C1253.5 339.297 1265.32 338.627 1269.93 342.068C1275.07 345.896 1278.22 358.52 1274.96 363.925C1268.81 374.113 1259 386.378 1251.85 395.89C1234.92 418.56 1217.79 441.083 1200.47 463.457C1214.13 463.46 1261.13 461.036 1270.3 464.092C1274.81 465.596 1278.48 469.259 1280.48 473.51C1282.88 478.609 1283.49 485.445 1281.48 490.772C1279.31 496.523 1274.69 500.081 1269.27 502.552C1262.83 504.032 1251.55 503.499 1244.75 503.491L1204.56 503.39C1188.31 503.354 1171.81 503.349 1155.56 503.465C1142.32 503.56 1135.58 483.501 1140.8 476.575C1164.98 444.484 1189.2 412.001 1213.86 380.243C1196.07 380.073 1164.75 382.068 1148.81 379.307C1137.86 377.41 1129.41 348.658 1151.77 339.483Z"/><path fill="#0D1B2A" d="M591.156 334.884C596.099 334.656 600.62 334.891 605.161 337.049C609.264 338.998 613.621 343.1 615.081 347.502C617.879 355.937 617.728 469.969 616.611 484.446C616.408 487.078 615.897 489.042 614.698 491.41C611.356 498.01 605.955 500.979 599.136 503.148C585.569 504.487 573.555 498.54 573.291 483.719C573.003 467.504 573.08 451.341 573.047 435.124L572.952 384.38C572.938 374.668 572.844 365.103 573.189 355.392C573.61 343.544 579.926 337.575 591.156 334.884Z"/><path fill="#0D1B2A" d="M592.244 270.07C606.381 268.667 618.987 278.971 620.428 293.108C621.869 307.245 611.602 319.882 597.473 321.362C583.289 322.847 570.596 312.529 569.149 298.338C567.702 284.147 578.053 271.478 592.244 270.07Z"/></svg>